<svg width="20" height="20" viewBox="0 0 20 20" fill="none" xmlns="http://www.w3.org/2000/svg">
<path d="M18.25 10C18.25 14.5563 14.5563 18.25 10 18.25V19.75C15.3848 19.75 19.75 15.3848 19.75 10H18.25ZM10 18.25C5.44365 18.25 1.75 14.5563 1.75 10H0.25C0.25 15.3848 4.61522 19.75 10 19.75V18.25ZM1.75 10C1.75 5.44365 5.44365 1.75 10 1.75V0.25C4.61522 0.25 0.25 4.61522 0.25 10H1.75ZM10 1.75C14.5563 1.75 18.25 5.44365 18.25 10H19.75C19.75 4.61522 15.3848 0.25 10 0.25V1.75ZM6.75 10C6.75 6.5506 8.22542 3.50306 10.4872 1.57017L9.51275 0.429833C6.90822 2.65559 5.25 6.12421 5.25 10H6.75ZM10.4872 18.4298C8.22542 16.4969 6.75 13.4494 6.75 10H5.25C5.25 13.8758 6.90822 17.3444 9.51275 19.5702L10.4872 18.4298ZM13.25 10C13.25 13.516 12.1196 16.5873 10.4363 18.5053L11.5637 19.4947C13.5302 17.254 14.75 13.8091 14.75 10H13.25ZM10.4363 1.49472C12.1196 3.41269 13.25 6.48396 13.25 10H14.75C14.75 6.19086 13.5302 2.74595 11.5637 0.505281L10.4363 1.49472ZM2 8H18V6.5H2V8ZM2 14H18V12.5H2V14Z" fill="white"/>
</svg>
