<svg width="22" height="20" viewBox="0 0 22 20" fill="none" xmlns="http://www.w3.org/2000/svg">
<path d="M9.75 16C9.75 15.5858 9.41421 15.25 9 15.25C8.58579 15.25 8.25 15.5858 8.25 16H9.75ZM8.25 19C8.25 19.4142 8.58579 19.75 9 19.75C9.41421 19.75 9.75 19.4142 9.75 19H8.25ZM13.75 16C13.75 15.5858 13.4142 15.25 13 15.25C12.5858 15.25 12.25 15.5858 12.25 16H13.75ZM12.25 19C12.25 19.4142 12.5858 19.75 13 19.75C13.4142 19.75 13.75 19.4142 13.75 19H12.25ZM7 18.25C6.58579 18.25 6.25 18.5858 6.25 19C6.25 19.4142 6.58579 19.75 7 19.75V18.25ZM15 19.75C15.4142 19.75 15.75 19.4142 15.75 19C15.75 18.5858 15.4142 18.25 15 18.25V19.75ZM3 1.75H19V0.25H3V1.75ZM20.25 3V14H21.75V3H20.25ZM19 15.25H3V16.75H19V15.25ZM1.75 14V3H0.25V14H1.75ZM3 15.25C2.30964 15.25 1.75 14.6904 1.75 14H0.25C0.25 15.5188 1.48122 16.75 3 16.75V15.25ZM20.25 14C20.25 14.6904 19.6904 15.25 19 15.25V16.75C20.5188 16.75 21.75 15.5188 21.75 14H20.25ZM19 1.75C19.6904 1.75 20.25 2.30964 20.25 3H21.75C21.75 1.48122 20.5188 0.25 19 0.25V1.75ZM3 0.25C1.48122 0.25 0.25 1.48122 0.25 3H1.75C1.75 2.30964 2.30964 1.75 3 1.75V0.25ZM8.25 16V19H9.75V16H8.25ZM12.25 16V19H13.75V16H12.25ZM7 19.75H15V18.25H7V19.75Z" fill="white"/>
</svg>
