<svg width="14" height="20" viewBox="0 0 14 20" fill="none" xmlns="http://www.w3.org/2000/svg">
<path d="M5 1V0.25H4.25V1H5ZM9 1H9.75V0.25H9V1ZM4 1.75H10V0.25H4V1.75ZM12.25 4V16H13.75V4H12.25ZM10 18.25H4V19.75H10V18.25ZM1.75 16V4H0.25V16H1.75ZM4 18.25C2.75736 18.25 1.75 17.2426 1.75 16H0.25C0.25 18.0711 1.92893 19.75 4 19.75V18.25ZM12.25 16C12.25 17.2426 11.2426 18.25 10 18.25V19.75C12.0711 19.75 13.75 18.0711 13.75 16H12.25ZM10 1.75C11.2426 1.75 12.25 2.75736 12.25 4H13.75C13.75 1.92893 12.0711 0.25 10 0.25V1.75ZM4 0.25C1.92893 0.25 0.25 1.92893 0.25 4H1.75C1.75 2.75736 2.75736 1.75 4 1.75V0.25ZM5 1.75H9V0.25H5V1.75ZM8.25 1V2H9.75V1H8.25ZM8 2.25H6V3.75H8V2.25ZM5.75 2V1H4.25V2H5.75ZM6 2.25C5.86193 2.25 5.75 2.13807 5.75 2H4.25C4.25 2.9665 5.0335 3.75 6 3.75V2.25ZM8.25 2C8.25 2.13807 8.13807 2.25 8 2.25V3.75C8.9665 3.75 9.75 2.9665 9.75 2H8.25Z" fill="white"/>
</svg>
